<svg width="100" height="71" viewBox="0 0 100 71" fill="none" xmlns="http://www.w3.org/2000/svg">
<path fill-rule="evenodd" clip-rule="evenodd" d="M41.4592 61.1171C39.643 59.5603 39.643 56.7506 41.4592 55.1938L43.5194 57.5974L41.4592 55.1938L50.76 47.2218C52.0982 46.0747 54.113 46.2297 55.2601 47.5679C56.4071 48.9062 56.2522 50.921 54.9139 52.068L47.8119 58.1555L54.9139 64.2429C56.2522 65.3899 56.4071 67.4047 55.2601 68.743C54.113 70.0812 52.0982 70.2362 50.76 69.0891L41.4592 61.1171Z" fill="#FEFBF1"/>
<path fill-rule="evenodd" clip-rule="evenodd" d="M10.5735 48.6586C12.359 45.6456 16.7197 45.6456 18.5052 48.6586L28.6323 65.7482C29.5309 67.2645 29.0301 69.2222 27.5138 70.1208C25.9974 71.0193 24.0397 70.5185 23.1412 69.0022L14.5394 54.4866L5.93754 69.0022C5.03896 70.5185 3.08129 71.0193 1.56494 70.1208C0.0485997 69.2222 -0.452202 67.2645 0.446372 65.7482L10.5735 48.6586Z" fill="#FEFBF1"/>
<path fill-rule="evenodd" clip-rule="evenodd" d="M82.1049 47.629C83.6157 45.0795 87.3055 45.0795 88.8163 47.629L99.5536 65.7481C100.452 67.2645 99.9514 69.2222 98.435 70.1207C96.9187 71.0193 94.961 70.5185 94.0624 69.0022L85.4606 54.4866L76.8588 69.0022C75.9602 70.5185 74.0026 71.0193 72.4862 70.1207C70.9699 69.2222 70.4691 67.2645 71.3676 65.7481L82.1049 47.629Z" fill="#FEFBF1"/>
<path d="M52.8368 5.6737C52.8368 8.8072 50.2966 11.3474 47.1631 11.3474C44.0296 11.3474 41.4894 8.8072 41.4894 5.6737C41.4894 2.5402 44.0296 0 47.1631 0C50.2966 0 52.8368 2.5402 52.8368 5.6737Z" fill="#C4C4C4"/>
<path d="M52.8368 5.6737C52.8368 8.8072 50.2966 11.3474 47.1631 11.3474C44.0296 11.3474 41.4894 8.8072 41.4894 5.6737C41.4894 2.5402 44.0296 0 47.1631 0C50.2966 0 52.8368 2.5402 52.8368 5.6737Z" fill="#FFCC29"/>
<path d="M69.1487 28.0139C69.1487 35.6518 62.9569 41.8435 55.319 41.8435C47.6811 41.8435 41.4894 35.6518 41.4894 28.0139C41.4894 20.376 47.6811 14.1843 55.319 14.1843C62.9569 14.1843 69.1487 20.376 69.1487 28.0139Z" fill="#C4C4C4"/>
<path d="M69.1487 28.0139C69.1487 35.6518 62.9569 41.8435 55.319 41.8435C47.6811 41.8435 41.4894 35.6518 41.4894 28.0139C41.4894 20.376 47.6811 14.1843 55.319 14.1843C62.9569 14.1843 69.1487 20.376 69.1487 28.0139Z" fill="#FFCC29"/>
<path d="M98.9356 28.0139C98.9356 35.6518 92.7439 41.8435 85.106 41.8435C77.4681 41.8435 71.2764 35.6518 71.2764 28.0139C71.2764 20.376 77.4681 14.1843 85.106 14.1843C92.7439 14.1843 98.9356 20.376 98.9356 28.0139Z" fill="#C4C4C4"/>
<path d="M98.9356 28.0139C98.9356 35.6518 92.7439 41.8435 85.106 41.8435C77.4681 41.8435 71.2764 35.6518 71.2764 28.0139C71.2764 20.376 77.4681 14.1843 85.106 14.1843C92.7439 14.1843 98.9356 20.376 98.9356 28.0139Z" fill="#FFCC29"/>
<path fill-rule="evenodd" clip-rule="evenodd" d="M34.7519 5.07284e-08C36.5145 2.27119e-08 37.9434 1.42886 37.9434 3.19146L37.9434 67.0206C37.9434 68.7832 36.5145 70.212 34.7519 70.212C32.9893 70.212 31.5605 68.7832 31.5605 67.0206L31.5605 3.19146C31.5605 1.42886 32.9893 7.87449e-08 34.7519 5.07284e-08Z" fill="#FEFBF1"/>
<path fill-rule="evenodd" clip-rule="evenodd" d="M63.8297 45.3896C65.5923 45.3896 67.0211 46.8185 67.0211 48.581L67.0211 67.0206C67.0211 68.7832 65.5923 70.212 63.8297 70.212C62.0671 70.212 60.6382 68.7832 60.6382 67.0206L60.6382 48.581C60.6382 46.8185 62.0671 45.3896 63.8297 45.3896Z" fill="#FEFBF1"/>
<path d="M12.968 17.5984C13.6862 16.3561 15.4816 16.3561 16.1998 17.5984L28.4978 38.8715C29.216 40.1138 28.3182 41.6667 26.8819 41.6667H2.28589C0.849544 41.6667 -0.0481744 40.1138 0.669999 38.8715L12.968 17.5984Z" fill="#C4C4C4"/>
<path d="M12.968 17.5984C13.6862 16.3561 15.4816 16.3561 16.1998 17.5984L28.4978 38.8715C29.216 40.1138 28.3182 41.6667 26.8819 41.6667H2.28589C0.849544 41.6667 -0.0481744 40.1138 0.669999 38.8715L12.968 17.5984Z" fill="#FFCC29"/>
</svg>
