<svg width="39" height="26" viewBox="0 0 39 26" fill="none" xmlns="http://www.w3.org/2000/svg">
<g clip-path="url(#clip0_779_68)">
<path d="M34.0853 10.2191L38.8141 10.1653L38.8877 15.0709L38.2655 15.0779C36.5233 15.0978 35.1385 15.6976 34.1112 16.8773C33.0423 18.0575 32.3067 19.4043 31.9044 20.9176C31.5025 22.4796 31.3063 23.8446 31.316 25.0125L22.605 25.1116C22.5949 23.895 22.8329 22.5783 23.319 21.1613C23.7641 19.7935 24.5423 18.5923 25.6539 17.5576C26.7658 16.5716 28.1929 16.0686 29.9351 16.0488L29.9278 15.1728L0.996501 15.5021L0.922852 10.5965L25.8098 10.3133L34.0853 10.2191Z" fill="#F0353C"/>
<path d="M34.1925 15.4573L38.9214 15.4035L38.8477 10.4979L38.2255 10.505C36.4833 10.5248 35.0889 9.95665 34.0422 8.80051C32.954 7.64484 32.1963 6.31507 31.769 4.81119C31.3413 3.25866 31.1226 1.89841 31.113 0.730469L22.402 0.829615C22.412 2.04622 22.6718 3.35733 23.1812 4.76293C23.6488 6.12034 24.4468 7.30365 25.5752 8.31285C26.7033 9.27339 28.1384 9.74375 29.8806 9.72392L29.8878 10.5999L0.956543 10.9291L1.03019 15.8347L25.9171 15.5515L34.1925 15.4573Z" fill="#F0353C"/>
</g>
<defs>
<clipPath id="clip0_779_68">
<rect width="39" height="26" fill="white"/>
</clipPath>
</defs>
</svg>
