<svg width="39" height="26" viewBox="0 0 39 26" fill="none" xmlns="http://www.w3.org/2000/svg">
<path d="M34.0853 10.219L38.8141 10.1652L38.8877 15.0708L38.2655 15.0778C36.5233 15.0977 35.1385 15.6975 34.1112 16.8772C33.0423 18.0574 32.3067 19.4042 31.9044 20.9175C31.5025 22.4795 31.3063 23.8445 31.316 25.0124L22.605 25.1115C22.5949 23.8949 22.8329 22.5782 23.319 21.1612C23.7641 19.7934 24.5423 18.5922 25.6539 17.5575C26.7658 16.5715 28.1929 16.0685 29.9351 16.0487L29.9278 15.1727L0.99653 15.502L0.922881 10.5964L25.8098 10.3132L34.0853 10.219Z" fill="#1D2323"/>
<path d="M34.1925 15.4574L38.9214 15.4036L38.8477 10.498L38.2255 10.5051C36.4833 10.5249 35.0889 9.95673 34.0422 8.80059C32.954 7.64492 32.1963 6.31515 31.769 4.81127C31.3413 3.25874 31.1226 1.89849 31.113 0.730549L22.402 0.829695C22.412 2.0463 22.6718 3.35741 23.1812 4.76301C23.6488 6.12042 24.4468 7.30373 25.5752 8.31293C26.7033 9.27347 28.1384 9.74383 29.8806 9.724L29.8878 10.6L0.956514 10.9292L1.03016 15.8348L25.9171 15.5516L34.1925 15.4574Z" fill="#1D2323"/>
</svg>
